<svg height="340" viewBox="0 0 340 340" width="340" xmlns="http://www.w3.org/2000/svg"><g fill="none" fill-rule="evenodd"><path d="m317.201132 85.0821369c-1.586886-2.7598012-5.078264-3.7503398-7.856754-2.2427248l-.169199.0954305-20.323025 11.7338487c-2.792656 1.6192712-3.754832 5.198095-2.147295 8.0024847 1.091248 1.877416 3.062535 2.933462 5.092491 2.933462.920655 0 1.851309-.209959 2.7089-.666794l.212828-.119374 20.323026-11.7338482c2.80439-1.6192712 3.778299-5.1863612 2.159028-8.0024849zm-62.259801-62.2832689c-2.735663-1.5977191-6.236993-.7070218-7.911936 1.9772014l-.102283.1700929-11.733849 20.323026c-1.619271 2.8043898-.668829 6.4066814 2.135561 8.0142187.91524.5280231 1.924351.7861678 2.921728.7861678 1.959958 0 3.865222-.9844713 4.976497-2.7421863l.115994-.1912759 11.733848-20.3230259c1.619271-2.8043898.66883-6.3832137-2.13556-8.0142187z" fill="#ff9000"/><path d="m44.7983773 235.45-22.185 12.835c-1.7 1.02-3.825.34-4.76-1.445-10.28500003-20.4-16.57500003-43.095-17.8533773-67.235-.08162273-1.955 1.44837727-3.57 3.40337727-3.57h25.50000003c3.485 0 6.29-3.06 5.865-6.63-.34-2.975-3.06-5.1-6.035-5.1h-25.24500003c-1.955 0-3.48837727-1.615-3.4-3.655 1.36-24.055 7.565-46.835 17.93500003-67.235.85-1.785 3.06-2.38 4.76-1.445l22.185 12.835c.935.51 1.955.765 2.89.765 2.04 0 3.995-1.02 5.1-2.975 1.615-2.805.68-6.375-2.125-7.99l-22.015-12.75c-1.7-1.02-2.21-3.23-1.105-4.845 12.835-19.55 29.58-36.295 49.13-49.13 1.615-1.105 3.825-.595 4.845 1.105l12.75 22.015c1.105 1.87 3.06 2.975 5.1 2.975 1.0199997 0 2.0399997-.255 2.8899997-.765 2.805-1.615 3.74-5.185 2.125-7.99l-12.8349997-22.185c-1.02-1.7-.34-3.825 1.445-4.76 22.8649997-11.645 48.9599997-18.275 76.5849997-18.275 3.23 0 5.865 2.635 5.865 5.865v151.64c0 3.74 3.06 6.8 6.8 6.8h151.64c3.23 0 5.865 2.635 5.865 5.865 0 27.625-6.63 53.635-18.36 76.755-.85 1.785-3.06 2.38-4.76 1.445l-22.27-12.92c-2.805-1.615-6.375-.68-7.99 2.125s-.68 6.375 2.125 7.99l22.015 12.75c1.7 1.02 2.21 3.23 1.105 4.845-12.835 19.55-29.58 36.295-49.13 49.13-1.615 1.105-3.825.595-4.845-1.105l-12.75-22.015c-1.615-2.805-5.185-3.74-7.99-2.125s-3.74 5.185-2.125 7.99l12.835 22.185c1.02 1.7.34 3.825-1.445 4.76-20.4 10.37-43.18 16.575-67.235 17.938377-1.955.081623-3.655-1.448377-3.655-3.403377v-25.245c0-2.975-2.125-5.61-5.1-6.035-3.57-.425-6.63 2.295-6.63 5.78v25.5c0 1.955-1.615 3.485-3.655 3.403377-24.055-1.363377-46.835-7.568377-67.2349997-17.938377-1.785-.85-2.38-3.06-1.445-4.76l12.8349997-22.185c1.615-2.805.68-6.375-2.125-7.99-2.8049997-1.615-6.3749997-.68-7.9899997 2.125l-12.75 22.015c-1.02 1.7-3.23 2.21-4.845 1.105-19.55-12.835-36.295-29.58-49.13-49.13-1.105-1.615-.595-3.825 1.105-4.845l22.015-12.75c2.805-1.615 3.74-5.185 2.125-7.99-1.615-2.72-5.015-3.74-7.82-2.21z" fill="#c33"/></g></svg>