<svg height="300" viewBox="0 0 240 300" width="240" xmlns="http://www.w3.org/2000/svg" xmlns:xlink="http://www.w3.org/1999/xlink"><filter id="a" color-interpolation-filters="auto"><feColorMatrix in="SourceGraphic" type="matrix" values="0 0 0 0 0.000000 0 0 0 0 0.388235 0 0 0 0 0.862745 0 0 0 1.000000 0"/></filter><g fill="#c33" fill-rule="evenodd" filter="url(#a)"><path d="m186.6 219.84 30.6 45.9c1.5 2.22.84 5.28-1.44 6.72-27.72 17.46-60.6 27.54-95.76 27.54s-68.04-10.08-95.76-27.54c-2.28-1.44-2.88-4.5-1.44-6.72l30.6-45.9c19.08 12.72 42 20.16 66.6 20.16s47.52-7.44 66.6-20.16z"/><path d="m120 0c66 0 119.34 52.8 120 118.8.42 42.12-20.88 79.32-53.4 101.1l-28.32-42.48c-2.64-3.96-1.98-9.3 1.62-12.48 12.66-11.28 20.52-27.84 20.16-46.2-.66-31.44-27.66-58.2-59.16-58.62-33.6-.6-60.9 26.46-60.9 59.88 0 17.88 7.8 33.9 20.22 44.94 3.54 3.18 4.2 8.46 1.56 12.42l-28.38 42.48c-32.16-21.48-53.4-58.2-53.4-99.84 0-66.3 53.7-120 120-120z"/></g></svg>