<svg xmlns="http://www.w3.org/2000/svg" width="600" height="160"><style>@media (prefers-color-scheme:dark){.a{fill:#fff}}</style><path class="a" fill="#072823" d="M331.418 50c19.883 0 36 16.118 36 36s-16.117 36-36 36-36-16.118-36-36 16.118-36 36-36M483 50c18.013 0 32.936 13.23 35.583 30.503l.076.525A9.65 9.65 0 0 1 509.1 92h-44.22a2 2 0 0 0-1.813 2.844q1.76 3.779 3.309 5.565C470.409 105.059 476.36 108 483 108c4.53 0 8.74-1.369 12.239-3.716q.32-.214.673-.487a7.2 7.2 0 0 1 9.49.606l3.592 3.591a2 2 0 0 1 .017 2.811l-.612.621-.58.575-.546.527-.261.246-.497.457q-.24.218-.464.411l-.43.364-.204.164A35.85 35.85 0 0 1 483 122c-19.882 0-36-16.118-36-36s16.118-36 36-36m-247 0c10.46 0 19.878 4.46 26.455 11.584l.338.37a.87.87 0 0 1-.032 1.198l-8.954 8.952a.53.53 0 0 1-.747 0l-.035-.038C248.991 67.142 242.862 64 236 64c-12.15 0-22 9.85-22 22s9.85 22 22 22c6.7 0 12.701-2.995 16.737-7.72l.26-.311a.684.684 0 0 1 .963-.094l.049.045 8.92 8.92c.25.25.285.637.1.926l-.07.093C256.364 117.306 246.73 122 236 122c-19.882 0-36-16.118-36-36s16.118-36 36-36m49.418-16a1 1 0 0 1 1 1v86a1 1 0 0 1-1 1h-12a1 1 0 0 1-1-1V35a1 1 0 0 1 1-1zm104 0a1 1 0 0 1 1 1v56.335a4 4 0 0 0 7.2 2.4L430.121 50.4a1 1 0 0 1 .8-.4h15.5a1 1 0 0 1 .8 1.6l-24.001 32a4 4 0 0 0 0 4.8l24.001 32a1 1 0 0 1-.8 1.6h-15.5a1 1 0 0 1-.8-.4l-14.502-19.335a4 4 0 0 0-6.4 0l-14.5 19.335a1 1 0 0 1-.8.4h-16.5a1 1 0 0 1-1-1V35a1 1 0 0 1 1-1zm174.583 16c19.684 0 35.678 15.797 35.996 35.405L600 121a1 1 0 0 1-.883.993L599 122h-12a1 1 0 0 1-1-1V86c0-12.15-9.85-22-22-22-12.028 0-21.802 9.654-21.997 21.636L542.001 121a1 1 0 0 1-1 1h-12a1 1 0 0 1-1-1V86c0-19.882 16.118-36 36-36M331.418 64c-12.15 0-22 9.85-22 22s9.85 22 22 22 22-9.85 22-22-9.85-22-22-22M483 64c-6.552 0-12.436 2.865-16.466 7.41q-1.096 1.234-2.446 3.598A2 2 0 0 0 465.825 78h34.365a2 2 0 0 0 1.74-2.986q-1.236-2.18-2.237-3.344C495.658 66.974 489.676 64 483 64"/><g fill="#3FB950"><path d="M80 0c44.183 0 80 35.819 80 80s-35.817 80-80 80S0 124.181 0 80 35.818 0 80 0m-.181 11.733c-37.6 0-68.086 30.486-68.086 68.086 0 21.6 10.06 40.864 25.772 53.322.73.576 1.462 1.142 2.212 1.686a41 41 0 0 0 2.299 1.6 48 48 0 0 0 2.347 1.514c.053.032.103.075.152.107.682.405 1.363.8 2.08 1.184a61 61 0 0 0 6.824 3.339c.286.134.572.253.858.368l.571.229c.768.31 1.566.608 2.367.885.47.167.939.322 1.413.474l.954.305q.14.055.29.1l.305.092.904.26q.456.131.918.252.227.075.476.137l.339.087c.8.203 1.635.405 2.453.576.748.17 1.496.32 2.246.437a.55.55 0 0 0 .254.054q.256.054.511.093l.511.077c.51.107 1.006.171 1.515.235a52 52 0 0 0 2.895.341q.281.032.559.058l.545.049c.103.01.19.01.272.01.752.075 1.5.107 2.264.14a56 56 0 0 0 2.98.074 54 54 0 0 0 2.978-.075 39 39 0 0 0 2.264-.138c.065 0 .128 0 .199-.005l.073-.006c.36-.032.732-.064 1.108-.107a51 51 0 0 0 2.892-.341 19 19 0 0 0 1.516-.235l.51-.077q.256-.039.51-.093c.087 0 .17-.011.257-.054a34 34 0 0 0 2.247-.437 54 54 0 0 0 1.967-.455l.483-.121c.29-.075.562-.139.818-.224q.46-.12.917-.252l.905-.26.304-.092q.151-.045.29-.1l1.2-.381a44 44 0 0 0 1.185-.398 74 74 0 0 0 1.885-.702l1.035-.412c.286-.115.571-.234.857-.368a61 61 0 0 0 6.825-3.339 54 54 0 0 0 2.077-1.184l.153-.107c.802-.49 1.583-.981 2.35-1.514a42 42 0 0 0 2.298-1.6 78 78 0 0 0 2.213-1.686c15.708-12.458 25.769-31.722 25.769-53.322 0-37.6-30.485-68.086-68.085-68.086"/><path fill-opacity=".8" d="M79.819 16.832c34.774 0 62.978 28.213 62.978 62.987 0 24.256-13.719 45.312-33.82 55.829a17.15 17.15 0 0 1-9.447-5.717 17 17 0 0 1-1.65-2.358c19.302-7.285 33.002-25.92 33.002-47.754 0-28.203-22.859-51.072-51.063-51.072S28.754 51.616 28.754 79.819c0 21.834 13.704 40.469 33.006 47.754-.476.822-1.02 1.6-1.652 2.358a17.14 17.14 0 0 1-9.445 5.717C30.56 125.131 16.84 104.075 16.84 79.818c0-34.773 28.205-62.986 62.98-62.986"/><path fill-opacity=".6" d="M79.819 33.856c25.378 0 45.957 20.576 45.957 45.963 0 19.669-12.373 36.469-29.77 43.008-1.344-5.686.288-11.83 4.664-16.096.305-.331.631-.619.97-.907a8 8 0 0 1 .987-.747l.056-.053.03-.021a33.93 33.93 0 0 0 11.148-25.184c0-18.816-15.233-34.048-34.042-34.048-18.807 0-34.043 15.232-34.043 34.048 0 9.984 4.308 18.976 11.15 25.184l.029.021.056.053c.284.178.555.386.824.61l.162.137c.342.288.681.576.986.907 4.359 4.266 5.995 10.432 4.665 16.096-17.411-6.539-29.787-23.318-29.787-43.008 0-25.387 20.578-45.963 45.958-45.963"/></g></svg>